<?xml version="1.0" standalone="no"?><!DOCTYPE svg PUBLIC "-//W3C//DTD SVG 1.1//EN" "http://www.w3.org/Graphics/SVG/1.1/DTD/svg11.dtd"><svg class="icon" width="200px" height="200.00px" viewBox="0 0 1024 1024" version="1.1" xmlns="http://www.w3.org/2000/svg"><path fill="#ffffff" d="M518.3 574.55h-321.3c-9 0-16.65 9-16.65 19.35s7.65 19.35 16.65 19.35h321.3c9 0 16.65-9 16.65-19.35s-7.65-19.35-16.65-19.35zM518.3 465.65h-321.3c-9 0-16.65 9-16.65 19.35s7.65 19.35 16.65 19.35h321.3c9 0 16.65-9 16.65-19.35s-7.65-19.35-16.65-19.35zM787.85 772.55c-2.25 0-4.5 0-6.75 0v123.75h-675.45v-772.2h675.9v304.65c2.25 0 4.5 0 6.75 0 9.45 0 18.45 0.9 27.45 2.25v-294.3c-0.45-13.95-5.4-27-13.95-36.45s-19.8-14.4-31.5-14.4h-653.85c-25.2 0-45.45 22.95-45.45 50.85v749.25c0 27.9 20.25 50.85 45.45 50.85h653.85c25.2 0 45.45-22.95 45.45-50.85v-115.65c-9 1.35-18.45 2.25-27.9 2.25zM518.3 683.9h-321.3c-9 0-16.65 9-16.65 19.35s7.65 19.35 16.65 19.35h321.3c9 0 16.65-9 16.65-19.35s-7.65-19.35-16.65-19.35zM626.3 485c0 10.35 7.65 19.35 16.65 19.35h1.8c9.9-14.85 22.050-27.9 36-39.15h-38.25c-9 0.45-16.2 9-16.2 19.8zM643.85 722.15h22.5c-11.25-11.25-20.7-23.85-28.35-37.8-6.3 3.15-10.8 9.9-10.8 18 0 10.8 7.65 19.8 16.65 19.8zM710.9 287c0-10.35-7.65-19.35-16.65-19.35h-497.25c-9 0-16.65 9-16.65 19.35v0.9c-0.45 5.4 1.35 10.35 4.95 13.95 3.15 3.15 7.2 4.95 11.7 4.95v0h497.25c8.55 0 16.65-9.45 16.65-19.8zM788.381 775.443c-95.45 0-173.584-78.135-173.584-173.584s78.135-173.584 173.584-173.584 173.584 78.135 173.584 173.584-78.047 173.584-173.584 173.584zM788.381 449.984c-84.638 0-151.875 67.237-151.875 151.875s67.237 151.875 151.875 151.875c84.638 0 151.875-67.237 151.875-151.875s-67.237-151.875-151.875-151.875zM885.5 543.050c-4.5-4.5-11.7-4.5-16.2 0l-122.4 122.4-57.6-57.6c-4.5-4.5-11.7-4.5-16.2 0-4.5 2.25-4.5 11.7 0 16.2l64.8 64.8c2.25 2.25 6.75 2.25 9.45 2.25 4.5 0 6.75 0 9.45-2.25l131.85-129.15c3.6-4.95 3.6-12.15-3.15-16.65z" /></svg>