<?xml version="1.0" standalone="no"?><!DOCTYPE svg PUBLIC "-//W3C//DTD SVG 1.1//EN" "http://www.w3.org/Graphics/SVG/1.1/DTD/svg11.dtd"><svg class="icon" width="200px" height="200.00px" viewBox="0 0 1024 1024" version="1.1" xmlns="http://www.w3.org/2000/svg"><path fill="#ffffff" d="M93.090909 200.145455V837.818182c4.654545 51.2 51.2 93.090909 107.054546 93.090909H837.818182c51.2-4.654545 97.745455-51.2 97.745454-102.4V437.527273c-4.654545-18.618182-18.618182-32.581818-37.236363-32.581818s-32.581818 18.618182-32.581818 37.236363v386.327273c-4.654545 18.618182-18.618182 32.581818-37.236364 32.581818H190.836364c-18.618182-4.654545-32.581818-18.618182-32.581819-32.581818V195.490909c4.654545-18.618182 18.618182-32.581818 37.236364-32.581818h386.327273c18.618182-4.654545 32.581818-18.618182 32.581818-32.581818s-18.618182-32.581818-37.236364-32.581818H190.836364C134.981818 97.745455 93.090909 144.290909 93.090909 200.145455zM479.418182 488.727273c-9.309091 13.963636-9.309091 37.236364 4.654545 46.545454s37.236364 13.963636 46.545455 0L889.018182 186.181818c9.309091-13.963636 9.309091-32.581818-4.654546-46.545454-13.963636-13.963636-32.581818-13.963636-46.545454 0l-358.4 349.090909z" /></svg>