<?xml version="1.0" standalone="no"?><!DOCTYPE svg PUBLIC "-//W3C//DTD SVG 1.1//EN" "http://www.w3.org/Graphics/SVG/1.1/DTD/svg11.dtd"><svg class="icon" width="200px" height="200.00px" viewBox="0 0 1024 1024" version="1.1" xmlns="http://www.w3.org/2000/svg"><path fill="#ffffff" d="M937.232603 799.116509a1666.722218 1666.722218 0 0 0 26.16697-45.507774 511.962456 511.962456 0 1 0-188.515953 197.731278l24.062235-14.10741 125.146378 34.13083a38.397184 38.397184 0 0 0 47.157431-47.15743l-34.13083-125.146378z m-78.330256 4.550778l20.706037 75.997982-75.997982-20.706037a38.397184 38.397184 0 0 0-29.409399 3.868161l-38.852262 22.753887a434.826779 434.826779 0 1 1 160.358018-168.151225c-4.437008 8.305169-15.529528 27.418434-32.822482 56.884717a38.397184 38.397184 0 0 0-3.98193 29.636938z"  /><path fill="#ffffff" d="M281.579351 511.962456a51.196246 51.196246 0 1 0 51.196245-51.196246 51.196246 51.196246 0 0 0-51.196245 51.196246z"  /><path fill="#ffffff" d="M460.76621 511.962456a51.196246 51.196246 0 1 0 51.196246-51.196246 51.196246 51.196246 0 0 0-51.196246 51.196246z"  /><path fill="#ffffff" d="M639.95307 511.962456a51.196246 51.196246 0 1 0 51.196246-51.196246 51.196246 51.196246 0 0 0-51.196246 51.196246z"  /></svg>