<?xml version="1.0" standalone="no"?><!DOCTYPE svg PUBLIC "-//W3C//DTD SVG 1.1//EN" "http://www.w3.org/Graphics/SVG/1.1/DTD/svg11.dtd"><svg class="icon" width="200px" height="200.00px" viewBox="0 0 1024 1024" version="1.1" xmlns="http://www.w3.org/2000/svg"><path fill="#ffffff" d="M523.636364 954.181818C285.858909 954.181818 93.090909 761.413818 93.090909 523.636364S285.858909 93.090909 523.636364 93.090909 954.181818 285.858909 954.181818 523.636364 761.413818 954.181818 523.636364 954.181818z m0-814.522182C311.552 139.659636 139.636364 305.128727 139.636364 523.636364s171.915636 383.162182 384 383.162181S907.636364 742.144 907.636364 523.636364c0-104.936727-40.448-205.568-112.477091-279.738182C723.153455 169.658182 625.501091 139.636364 523.636364 139.636364z m122.763636 506.414546l-133.143273-64.861091c-15.336727-8.727273-28.555636-25.995636-23.970909-43.054546-0.837818-3.165091 0.046545-11.217455 0-14.522181V281.018182c2.746182-25.739636 2.327273-42.193455 23.970909-42.193455 21.620364 0 23.086545 20.596364 23.086546 42.193455v251.345454l133.957818 75.357091c9.029818 5.12 21.201455 7.307636 23.901091 17.314909 2.722909 10.007273-5.166545 15.383273-10.379637 24.343273-10.984727 18.688-13.498182 6.865455-25.832727 3.560727l-11.589818-6.842181z"  /></svg>