<?xml version="1.0" standalone="no"?><!DOCTYPE svg PUBLIC "-//W3C//DTD SVG 1.1//EN" "http://www.w3.org/Graphics/SVG/1.1/DTD/svg11.dtd"><svg class="icon" width="200px" height="200.00px" viewBox="0 0 1024 1024" version="1.1" xmlns="http://www.w3.org/2000/svg"><path fill="#ffffff" d="M477.4 472.8V99.5c0-24.1 11.6-35.6 35.6-35.6s35.6 11.6 35.6 35.6v373.3c0 24-11.5 35.6-35.6 35.6-24 0-35.6-11.6-35.6-35.6z"  /><path fill="#ffffff" d="M484.9 472.8V99.5c0-19.9 8.2-28.1 28.1-28.1 19.9 0 28.1 8.2 28.1 28.1v373.3c0 19.9-8.2 28.1-28.1 28.1-19.9 0-28.1-8.3-28.1-28.1z"  /><path fill="#ffffff" d="M674.8 254.4c-12.8-7-18.6-16.8-18.6-31.4 0-27.1 29.1-44.4 52.9-31.4 131.3 71.7 213 209.4 213 359.1 0 225.9-183.2 409.1-409.1 409.1-225.9 0-409.1-183.1-409.1-409.1 0-149.6 81.7-287.3 213-359 23.8-13 52.9 4.3 52.9 31.4 0 14.6-5.8 24.4-18.6 31.4-108.4 59.2-175.8 172.8-175.8 296.3 0 186.4 151.2 337.6 337.6 337.6 186.4 0 337.6-151.1 337.6-337.6 0-123.6-67.4-237.2-175.8-296.4z"  /><path fill="#ffffff" d="M680.4 244.1c112.1 61.2 181.9 178.8 181.9 306.5 0 192.9-156.4 349.2-349.2 349.2-192.9 0-349.3-156.4-349.3-349.2 0-127.8 69.7-245.3 181.8-306.5 9.1-5 12.6-10.8 12.6-21.1 0-18.3-19.6-29.9-35.6-21.2-127.6 69.8-207 203.5-207 348.9 0 219.5 177.9 397.4 397.4 397.4 219.5 0 397.4-177.9 397.4-397.4 0-145.3-79.3-279.1-206.9-348.8-16-8.7-35.6 2.9-35.6 21.2-0.1 10.2 3.4 16.1 12.5 21z"  /></svg>