<?xml version="1.0" standalone="no"?><!DOCTYPE svg PUBLIC "-//W3C//DTD SVG 1.1//EN" "http://www.w3.org/Graphics/SVG/1.1/DTD/svg11.dtd"><svg class="icon" width="200px" height="200.00px" viewBox="0 0 1024 1024" version="1.1" xmlns="http://www.w3.org/2000/svg"><path fill="#ffffff" d="M120.772 398C184.16 398 235.546 449.488 235.546 513 235.546 576.512 184.16 628 120.772 628 57.386 628 6 576.512 6 513 6 449.488 57.386 398 120.772 398ZM511 398C574.388 398 625.772 449.488 625.772 513 625.772 576.512 574.388 628 511 628 447.612 628 396.228 576.512 396.228 513 396.228 449.488 447.612 398 511 398ZM901.22 513m-114.782 0a57.391 57.391 0 1 0 229.564 0 57.391 57.391 0 1 0-229.564 0Z" /></svg>