<?xml version="1.0" standalone="no"?><!DOCTYPE svg PUBLIC "-//W3C//DTD SVG 1.1//EN" "http://www.w3.org/Graphics/SVG/1.1/DTD/svg11.dtd"><svg class="icon" width="200px" height="193.21px" viewBox="0 0 1060 1024" version="1.1" xmlns="http://www.w3.org/2000/svg"><path fill="#ffffff" d="M516.271429 731.685714a36.571429 36.571429 0 0 1 0 72.628572l-4.285715 0.257143H378.714286c33.9 86.857143 81.557143 142.185714 130.742857 146.028571l3.585714 0.142857 5.2 0.071429a450 450 0 0 0 122.4-16.828572l14.7-4.385714a36.585714 36.585714 0 0 1 22.242857 69.714286 524.814286 524.814286 0 0 1-141.171428 24.285714l-21.428572 0.3h-3.285714C228.571429 1020.457143 0 792.685714 0 512 0 232.957143 225.9 6.214286 506.7 0.114286l11.557143-0.114286c242.1 0 450.528571 165.342857 504.757143 395.371429a36.571429 36.571429 0 0 1-71.171429 16.828571 432.657143 432.657143 0 0 0-47.914286-119.6H750a928.485714 928.485714 0 0 1 17.814286 106.171429 36.571429 36.571429 0 0 1-72.714286 8.014285 821.114286 821.114286 0 0 0-20.471429-114.214285H355.357143c-13.885714 54.457143-23.028571 116.414286-25.514286 182.857142H585.142857l4.285714 0.257143a36.571429 36.571429 0 0 1 0 72.628572l-4.285714 0.257143H329.842857c2.442857 66.485714 11.585714 128.442857 25.557143 182.857142H512zM841.142857 475.428571a219.428571 219.428571 0 0 1 219.428572 219.428572q0 113.9-193.785715 304.428571a36.585714 36.585714 0 0 1-47.842857 2.957143l-3.442857-2.957143-11.542857-11.428571Q621.671429 805.285714 621.714286 694.857143a219.428571 219.428571 0 0 1 219.428571-219.428572z m0 73.142858a146.3 146.3 0 0 0-146.285714 146.285714c0 34.085714 25.528571 85.285714 78.071428 150.314286l15.042858 18.028571 16.314285 18.714286c5.714286 6.371429 11.6 12.857143 17.742857 19.385714l19.085715 20q14.814286-15.257143 28.085714-29.8l17.042857-19.014286c68.171429-78.085714 101.157143-138.871429 101.157143-177.671428A146.3 146.3 0 0 0 841.142857 548.571429zM300.728571 804.614286h-114.214285a446.214286 446.214286 0 0 0 169.8 116.285714c-21.642857-32.657143-40.371429-71.928571-55.585715-116.285714z m540.414286-182.857143a73.142857 73.142857 0 1 1-73.142857 73.142857 73.142857 73.142857 0 0 1 73.142857-73.142857zM256.628571 548.571429H74.671429A431.214286 431.214286 0 0 0 132.714286 731.428571h147.142857a946.728571 946.728571 0 0 1-22.285714-161.314285l-0.942858-21.542857z m23.257143-256h-147.142857a431.914286 431.914286 0 0 0-58.014286 182.857142h181.9c2.185714-64.871429 10.242857-126.642857 23.257143-182.857142z m76.428572-189.442858L349.8 105.714286a446.042857 446.042857 0 0 0-163.285714 113.771428h114.214285C314.042857 180.585714 330 145.714286 348.385714 115.714286l7.971429-12.542857zM515.714286 73.142857h-2.428572c-50.585714 1.242857-99.771429 57.142857-134.585714 146.285714h272.457143C616.7 131.771429 568.571429 77.142857 520.3 73.357143z m155.714285 26.771429l1.428572 2.085714c21.942857 32.771429 40.885714 72.414286 56.285714 117.385714h120.9a446.857143 446.857143 0 0 0-178.571428-119.471428z" /></svg>