<?xml version="1.0" standalone="no"?><!DOCTYPE svg PUBLIC "-//W3C//DTD SVG 1.1//EN" "http://www.w3.org/Graphics/SVG/1.1/DTD/svg11.dtd"><svg t="1720768639961" class="icon" viewBox="0 0 1024 1024" version="1.1" xmlns="http://www.w3.org/2000/svg" p-id="5017" xmlns:xlink="http://www.w3.org/1999/xlink" width="200" height="200"><path d="M73.216 939.52c-9.216 0-17.408-3.584-23.552-10.24-9.728-9.728-12.288-23.552-7.68-35.84l92.672-239.616C153.6 604.16 182.784 560.128 220.16 522.24l474.112-473.6c31.232-31.232 73.728-48.64 117.76-48.64 45.056 0 86.528 17.408 117.76 48.64 65.024 65.024 65.024 171.008 0 236.032L455.68 758.784c-37.376 37.376-81.92 66.048-131.072 86.016l-239.616 92.672c-3.072 1.024-7.168 2.048-11.776 2.048zM812.544 67.584c-27.136 0-51.712 10.24-70.144 29.184l-474.112 474.112c-30.72 30.72-54.784 67.584-70.656 108.544l-65.024 168.448 168.448-65.024c40.96-15.872 77.312-39.424 108.544-70.656l474.112-474.112c38.912-38.912 38.912-101.888 0-140.8-18.944-19.968-44.544-29.696-71.168-29.696z m133.12 956.416H73.216c-18.432 0-33.792-15.36-33.792-33.792s15.36-33.792 33.792-33.792h871.936c18.432 0 33.792 15.36 33.792 33.792s-14.336 33.792-33.28 33.792z" fill="#e6e6e6" p-id="5018"></path></svg>