<?xml version="1.0" standalone="no"?><!DOCTYPE svg PUBLIC "-//W3C//DTD SVG 1.1//EN" "http://www.w3.org/Graphics/SVG/1.1/DTD/svg11.dtd"><svg class="icon" width="200px" height="200.00px" viewBox="0 0 1024 1024" version="1.1" xmlns="http://www.w3.org/2000/svg"><path fill="#ffffff" d="M170.666667 42.666667a128 128 0 0 0-128 128v682.666666a128 128 0 0 0 128 128h554.666666a128 128 0 0 0 128-128v-128h-85.333333v128a42.666667 42.666667 0 0 1-42.666667 42.666667H170.666667a42.666667 42.666667 0 0 1-42.666667-42.666667V170.666667a42.666667 42.666667 0 0 1 42.666667-42.666667h554.666666a42.666667 42.666667 0 0 1 42.666667 42.666667v85.333333h85.333333V170.666667a128 128 0 0 0-128-128H170.666667z m375.594666 681.386666a42.666667 42.666667 0 0 1 12.501334-30.208l283.221333-283.178666 60.330667 60.330666-283.221334 283.221334a42.666667 42.666667 0 0 1-30.165333 12.458666h-25.6a17.066667 17.066667 0 0 1-17.066667-17.066666v-25.6z m386.346667-283.392l-60.330667-60.330666 29.952-29.909334a25.6 25.6 0 0 1 36.181334 0l24.149333 24.106667a25.6 25.6 0 0 1 0 36.224l-29.952 29.909333zM256 341.333333a42.666667 42.666667 0 0 1 42.666667-42.666666h298.666666a42.666667 42.666667 0 1 1 0 85.333333H298.666667a42.666667 42.666667 0 0 1-42.666667-42.666667z m42.666667 170.666667a42.666667 42.666667 0 1 0 0 85.333333h170.666666a42.666667 42.666667 0 1 0 0-85.333333H298.666667z" /></svg>