<?xml version="1.0" standalone="no"?><!DOCTYPE svg PUBLIC "-//W3C//DTD SVG 1.1//EN" "http://www.w3.org/Graphics/SVG/1.1/DTD/svg11.dtd"><svg class="icon" width="200px" height="200.00px" viewBox="0 0 1024 1024" version="1.1" xmlns="http://www.w3.org/2000/svg"><path d="M638.74844445 657.86311111c0 0.11377778 0 0.11377778 0.11377777 0.22755556v-0.56888889c0 0.22755555 0 0.34133333-0.11377777 0.34133333zM639.31733333 756.05333333c0-0.11377778 0-0.11377778-0.11377778-0.22755555v0.45511111c0.11377778-0.11377778 0.11377778-0.22755555 0.11377778-0.22755556z" fill="#64B680" /><path d="M832.17066667 786.65955555h-31.51644445c0.79644445-30.72-0.34133333-75.66222222-9.67111111-123.904-9.78488889-51.08622222-20.82133333-80.44088889-53.36177778-135.6231111-18.77333333-31.97155555-52.79288889-68.03911111-94.09422222-99.328l228.01066667-0.22755556c7.96444445 0 11.15022222-13.19822222 4.55111111-18.77333334-23.89333333-20.13866667-70.31466667-49.26577778-138.80888889-49.6071111-25.82755555-0.22755555-48.46933333 3.86844445-67.92533333 10.24l126.17955555-126.5208889c5.68888889-5.68888889-1.36533333-17.18044445-10.01244444-16.384-31.17511111 2.73066667-84.53688889 15.01866667-133.23377778 63.0328889-11.60533333 11.49155555-21.16266667 23.21066667-28.89955555 34.92977777l-0.22755556-168.96c0-7.96444445-13.19822222-11.15022222-18.77333334-4.55111111-20.13866667 23.89333333-49.26577778 70.31466667-49.6071111 138.80888889-0.22755555 38.68444445 9.10222222 70.31466667 20.9351111 94.66311111-25.03111111-12.62933333-57.91288889-22.98311111-98.53155555-23.21066666-68.94933333-0.45511111-115.25688889 29.46844445-138.69511111 50.06222222-6.59911111 5.68888889-3.29955555 18.65955555 4.55111111 18.65955555l181.13422222-0.22755555c-17.06666667 9.216-34.816 21.61777778-51.88266667 38.57066666-49.03822222 48.46933333-60.64355555 102.28622222-62.69155555 133.46133334-0.56888889 8.64711111 10.80888889 15.58755555 16.384 10.01244444l140.17422222-140.51555556c-6.59911111 19.91111111-11.15022222 43.23555555-11.37777777 69.85955556-0.45511111 68.94933333 29.46844445 115.25688889 50.06222222 138.69511111 5.68888889 6.59911111 18.65955555 3.29955555 18.65955555-4.55111111l-0.22755555-225.62133333c73.04533333 64.85333333 81.00977778 143.13244445 86.92622222 225.84888889 3.52711111 49.94844445 4.89244445 88.97422222 5.46133333 111.16088888H551.36711111c-1.36533333-12.85688889-4.096-25.25866667-8.192-37.09155555-22.86933333-67.92533333-85.67466667-116.736-159.63022222-116.736-73.95555555 0-136.87466667 48.81066667-159.63022222 116.736-3.98222222 11.83288889-6.71288889 24.23466667-8.07822222 37.09155555h-26.51022223c-12.40177778 0-23.66577778 5.12-31.85777777 13.19822223-8.07822222 8.192-13.19822222 19.34222222-13.19822223 31.85777777 0 24.91733333 20.13866667 44.94222222 44.94222223 44.94222223h642.84444444c12.40177778 0 23.66577778-5.00622222 31.85777778-13.19822223 8.07822222-8.192 13.19822222-19.34222222 13.19822222-31.85777777 0-24.80355555-20.13866667-44.94222222-44.94222222-44.94222223z" fill="#52AE32" /></svg>